<?xml version="1.0" encoding="UTF-8" standalone="no"?>
<svg
   version="1.1"
   width="132"
   height="132"
   shape-rendering="crispEdges"
   id="svg4356"
   sodipodi:docname="favicon.svg"
   inkscape:version="1.4 (e7c3feb100, 2024-10-09)"
   xmlns:inkscape="http://www.inkscape.org/namespaces/inkscape"
   xmlns:sodipodi="http://sodipodi.sourceforge.net/DTD/sodipodi-0.dtd"
   xmlns="http://www.w3.org/2000/svg"
   xmlns:svg="http://www.w3.org/2000/svg">
  <defs
     id="defs4356" />
  <sodipodi:namedview
     id="namedview4356"
     pagecolor="#ffffff"
     bordercolor="#000000"
     borderopacity="0.25"
     inkscape:showpageshadow="2"
     inkscape:pageopacity="0.0"
     inkscape:pagecheckerboard="0"
     inkscape:deskcolor="#d1d1d1"
     inkscape:zoom="2.2579205"
     inkscape:cx="46.06008"
     inkscape:cy="60.453855"
     inkscape:window-width="1920"
     inkscape:window-height="1052"
     inkscape:window-x="0"
     inkscape:window-y="0"
     inkscape:window-maximized="1"
     inkscape:current-layer="svg4356" />
  <path
     id="rect1"
     d="M 0 0 L 0 2 L 0 4 L 0 6 L 0 8 L 0 10 L 0 12 L 0 14 L 0 16 L 0 18 L 0 20 L 0 22 L 0 24 L 0 26 L 0 28 L 0 30 L 0 32 L 0 34 L 0 36 L 0 38 L 0 40 L 0 42 L 0 44 L 0 46 L 0 48 L 0 50 L 0 52 L 0 54 L 0 56 L 0 58 L 0 60 L 0 62 L 0 64 L 0 66 L 0 68 L 2 68 L 4 68 L 4 66 L 4 64 L 4 62 L 4 60 L 4 58 L 4 56 L 4 54 L 4 52 L 4 50 L 4 48 L 4 46 L 4 44 L 4 42 L 4 40 L 4 38 L 4 36 L 4 34 L 4 32 L 4 30 L 4 28 L 4 26 L 4 24 L 4 22 L 4 20 L 4 18 L 4 16 L 4 14 L 4 12 L 4 10 L 4 8 L 4 6 L 4 4 L 6 4 L 8 4 L 10 4 L 12 4 L 14 4 L 16 4 L 18 4 L 20 4 L 22 4 L 24 4 L 26 4 L 28 4 L 30 4 L 32 4 L 34 4 L 36 4 L 38 4 L 40 4 L 42 4 L 44 4 L 46 4 L 48 4 L 50 4 L 52 4 L 54 4 L 56 4 L 58 4 L 60 4 L 62 4 L 64 4 L 66 4 L 68 4 L 70 4 L 72 4 L 74 4 L 76 4 L 78 4 L 80 4 L 82 4 L 84 4 L 86 4 L 88 4 L 90 4 L 92 4 L 94 4 L 96 4 L 98 4 L 100 4 L 102 4 L 104 4 L 106 4 L 108 4 L 110 4 L 112 4 L 114 4 L 116 4 L 118 4 L 120 4 L 122 4 L 124 4 L 126 4 L 128 4 L 128 6 L 128 8 L 128 10 L 128 12 L 126 12 L 124 12 L 124 14 L 124 16 L 126 16 L 128 16 L 128 18 L 128 20 L 128 22 L 128 24 L 128 26 L 128 28 L 128 30 L 128 32 L 128 34 L 128 36 L 128 38 L 128 40 L 128 42 L 128 44 L 128 46 L 128 48 L 128 50 L 128 52 L 128 54 L 128 56 L 128 58 L 128 60 L 128 62 L 128 64 L 128 66 L 128 68 L 128 70 L 128 72 L 128 74 L 128 76 L 128 78 L 128 80 L 128 82 L 128 84 L 128 86 L 128 88 L 128 90 L 128 92 L 128 94 L 128 96 L 128 98 L 128 100 L 128 102 L 128 104 L 128 106 L 128 108 L 128 110 L 128 112 L 128 114 L 128 116 L 128 118 L 128 120 L 128 122 L 128 124 L 126 124 L 124 124 L 124 126 L 124 128 L 122 128 L 120 128 L 118 128 L 116 128 L 114 128 L 112 128 L 110 128 L 108 128 L 106 128 L 104 128 L 102 128 L 100 128 L 98 128 L 96 128 L 94 128 L 92 128 L 90 128 L 88 128 L 86 128 L 84 128 L 82 128 L 80 128 L 78 128 L 76 128 L 74 128 L 72 128 L 70 128 L 68 128 L 66 128 L 64 128 L 62 128 L 60 128 L 58 128 L 56 128 L 54 128 L 52 128 L 50 128 L 48 128 L 46 128 L 44 128 L 42 128 L 40 128 L 38 128 L 36 128 L 34 128 L 32 128 L 30 128 L 28 128 L 26 128 L 24 128 L 22 128 L 20 128 L 18 128 L 16 128 L 14 128 L 12 128 L 10 128 L 8 128 L 6 128 L 4 128 L 4 126 L 4 124 L 4 122 L 4 120 L 4 118 L 4 116 L 4 114 L 4 112 L 4 110 L 4 108 L 4 106 L 4 104 L 4 102 L 4 100 L 4 98 L 4 96 L 4 94 L 4 92 L 4 90 L 4 88 L 4 86 L 4 84 L 4 82 L 4 80 L 4 78 L 4 76 L 4 74 L 4 72 L 2 72 L 0 72 L 0 74 L 0 76 L 0 78 L 0 80 L 0 82 L 0 84 L 0 86 L 0 88 L 0 90 L 0 92 L 0 94 L 0 96 L 0 98 L 0 100 L 0 102 L 0 104 L 0 106 L 0 108 L 0 110 L 0 112 L 0 114 L 0 116 L 0 118 L 0 120 L 0 122 L 0 124 L 0 126 L 0 128 L 0 130 L 0 132 L 2 132 L 4 132 L 6 132 L 8 132 L 10 132 L 12 132 L 14 132 L 16 132 L 18 132 L 20 132 L 22 132 L 24 132 L 26 132 L 28 132 L 30 132 L 32 132 L 34 132 L 36 132 L 38 132 L 40 132 L 42 132 L 44 132 L 46 132 L 48 132 L 50 132 L 52 132 L 54 132 L 56 132 L 58 132 L 60 132 L 62 132 L 64 132 L 66 132 L 68 132 L 70 132 L 72 132 L 74 132 L 76 132 L 78 132 L 80 132 L 82 132 L 84 132 L 86 132 L 88 132 L 90 132 L 92 132 L 94 132 L 96 132 L 98 132 L 100 132 L 102 132 L 104 132 L 106 132 L 108 132 L 110 132 L 112 132 L 114 132 L 116 132 L 118 132 L 120 132 L 122 132 L 124 132 L 126 132 L 128 132 L 130 132 L 132 132 L 132 130 L 132 128 L 132 126 L 132 124 L 132 122 L 132 120 L 132 118 L 132 116 L 132 114 L 132 112 L 132 110 L 132 108 L 132 106 L 132 104 L 132 102 L 132 100 L 132 98 L 132 96 L 132 94 L 132 92 L 132 90 L 132 88 L 132 86 L 132 84 L 132 82 L 132 80 L 132 78 L 132 76 L 132 74 L 132 72 L 132 70 L 132 68 L 132 66 L 132 64 L 132 62 L 132 60 L 132 58 L 132 56 L 132 54 L 132 52 L 132 50 L 132 48 L 132 46 L 132 44 L 132 42 L 132 40 L 132 38 L 132 36 L 132 34 L 132 32 L 132 30 L 132 28 L 132 26 L 132 24 L 132 22 L 132 20 L 132 18 L 132 16 L 132 14 L 132 12 L 132 10 L 132 8 L 132 6 L 132 4 L 132 2 L 132 0 L 130 0 L 128 0 L 126 0 L 124 0 L 122 0 L 120 0 L 118 0 L 116 0 L 114 0 L 112 0 L 110 0 L 108 0 L 106 0 L 104 0 L 102 0 L 100 0 L 98 0 L 96 0 L 94 0 L 92 0 L 90 0 L 88 0 L 86 0 L 84 0 L 82 0 L 80 0 L 78 0 L 76 0 L 74 0 L 72 0 L 70 0 L 68 0 L 66 0 L 64 0 L 62 0 L 60 0 L 58 0 L 56 0 L 54 0 L 52 0 L 50 0 L 48 0 L 46 0 L 44 0 L 42 0 L 40 0 L 38 0 L 36 0 L 34 0 L 32 0 L 30 0 L 28 0 L 26 0 L 24 0 L 22 0 L 20 0 L 18 0 L 16 0 L 14 0 L 12 0 L 10 0 L 8 0 L 6 0 L 4 0 L 2 0 L 0 0 z M 124 124 L 124 122 L 124 120 L 122 120 L 120 120 L 120 122 L 120 124 L 122 124 L 124 124 z M 120 120 L 120 118 L 120 116 L 118 116 L 116 116 L 116 118 L 116 120 L 118 120 L 120 120 z M 116 116 L 116 114 L 116 112 L 114 112 L 112 112 L 112 114 L 112 116 L 114 116 L 116 116 z M 112 112 L 112 110 L 112 108 L 110 108 L 108 108 L 108 110 L 108 112 L 110 112 L 112 112 z M 108 108 L 108 106 L 108 104 L 106 104 L 104 104 L 104 106 L 104 108 L 106 108 L 108 108 z M 104 104 L 104 102 L 104 100 L 102 100 L 100 100 L 100 102 L 100 104 L 102 104 L 104 104 z M 100 100 L 100 98 L 100 96 L 98 96 L 96 96 L 96 98 L 96 100 L 98 100 L 100 100 z M 96 96 L 96 94 L 96 92 L 94 92 L 92 92 L 92 94 L 92 96 L 94 96 L 96 96 z M 92 92 L 92 90 L 92 88 L 90 88 L 88 88 L 88 90 L 88 92 L 90 92 L 92 92 z M 88 88 L 88 86 L 88 84 L 86 84 L 84 84 L 84 86 L 84 88 L 86 88 L 88 88 z M 84 84 L 84 82 L 84 80 L 82 80 L 80 80 L 80 82 L 80 84 L 82 84 L 84 84 z M 80 80 L 80 78 L 80 76 L 78 76 L 76 76 L 76 78 L 76 80 L 78 80 L 80 80 z M 76 76 L 76 74 L 76 72 L 74 72 L 72 72 L 72 74 L 72 76 L 74 76 L 76 76 z M 72 72 L 72 70 L 72 68 L 70 68 L 68 68 L 68 70 L 68 72 L 70 72 L 72 72 z M 72 68 L 74 68 L 76 68 L 76 66 L 76 64 L 74 64 L 72 64 L 72 66 L 72 68 z M 76 64 L 78 64 L 80 64 L 80 62 L 80 60 L 78 60 L 76 60 L 76 62 L 76 64 z M 80 60 L 82 60 L 84 60 L 84 58 L 84 56 L 82 56 L 80 56 L 80 58 L 80 60 z M 84 56 L 86 56 L 88 56 L 88 54 L 88 52 L 86 52 L 84 52 L 84 54 L 84 56 z M 88 52 L 90 52 L 92 52 L 92 50 L 92 48 L 90 48 L 88 48 L 88 50 L 88 52 z M 92 48 L 94 48 L 96 48 L 96 46 L 96 44 L 94 44 L 92 44 L 92 46 L 92 48 z M 96 44 L 98 44 L 100 44 L 100 42 L 100 40 L 98 40 L 96 40 L 96 42 L 96 44 z M 100 40 L 102 40 L 104 40 L 104 38 L 104 36 L 102 36 L 100 36 L 100 38 L 100 40 z M 104 36 L 106 36 L 108 36 L 108 34 L 108 32 L 106 32 L 104 32 L 104 34 L 104 36 z M 108 32 L 110 32 L 112 32 L 112 30 L 112 28 L 110 28 L 108 28 L 108 30 L 108 32 z M 112 28 L 114 28 L 116 28 L 116 26 L 116 24 L 114 24 L 112 24 L 112 26 L 112 28 z M 116 24 L 118 24 L 120 24 L 120 22 L 120 20 L 118 20 L 116 20 L 116 22 L 116 24 z M 120 20 L 122 20 L 124 20 L 124 18 L 124 16 L 122 16 L 120 16 L 120 18 L 120 20 z "
     style="fill:#000000;fill-opacity:1" />
  <path
     id="rect135"
     d="M 4 4 L 4 6 L 4 8 L 4 10 L 4 12 L 4 14 L 4 16 L 4 18 L 4 20 L 4 22 L 4 24 L 4 26 L 4 28 L 4 30 L 4 32 L 4 34 L 4 36 L 4 38 L 4 40 L 4 42 L 4 44 L 4 46 L 4 48 L 4 50 L 4 52 L 4 54 L 4 56 L 4 58 L 4 60 L 4 62 L 4 64 L 6 64 L 8 64 L 8 62 L 8 60 L 10 60 L 12 60 L 12 58 L 12 56 L 14 56 L 16 56 L 16 54 L 16 52 L 18 52 L 20 52 L 20 50 L 20 48 L 22 48 L 24 48 L 24 46 L 24 44 L 26 44 L 28 44 L 28 42 L 28 40 L 30 40 L 32 40 L 32 38 L 32 36 L 34 36 L 36 36 L 36 34 L 36 32 L 38 32 L 40 32 L 40 30 L 40 28 L 42 28 L 44 28 L 44 26 L 44 24 L 46 24 L 48 24 L 48 22 L 48 20 L 50 20 L 52 20 L 52 18 L 52 16 L 54 16 L 56 16 L 56 14 L 56 12 L 58 12 L 60 12 L 60 10 L 60 8 L 62 8 L 64 8 L 64 6 L 64 4 L 62 4 L 60 4 L 58 4 L 56 4 L 54 4 L 52 4 L 50 4 L 48 4 L 46 4 L 44 4 L 42 4 L 40 4 L 38 4 L 36 4 L 34 4 L 32 4 L 30 4 L 28 4 L 26 4 L 24 4 L 22 4 L 20 4 L 18 4 L 16 4 L 14 4 L 12 4 L 10 4 L 8 4 L 6 4 L 4 4 z M 4 76 L 4 78 L 4 80 L 4 82 L 4 84 L 4 86 L 4 88 L 4 90 L 4 92 L 4 94 L 4 96 L 4 98 L 4 100 L 4 102 L 4 104 L 4 106 L 4 108 L 4 110 L 4 112 L 4 114 L 4 116 L 4 118 L 4 120 L 4 122 L 4 124 L 4 126 L 4 128 L 6 128 L 8 128 L 10 128 L 12 128 L 14 128 L 16 128 L 18 128 L 20 128 L 22 128 L 24 128 L 26 128 L 28 128 L 30 128 L 32 128 L 34 128 L 36 128 L 38 128 L 40 128 L 42 128 L 44 128 L 46 128 L 48 128 L 50 128 L 52 128 L 54 128 L 56 128 L 56 126 L 56 124 L 54 124 L 52 124 L 52 122 L 52 120 L 50 120 L 48 120 L 48 118 L 48 116 L 46 116 L 44 116 L 44 114 L 44 112 L 42 112 L 40 112 L 40 110 L 40 108 L 38 108 L 36 108 L 36 106 L 36 104 L 34 104 L 32 104 L 32 102 L 32 100 L 30 100 L 28 100 L 28 98 L 28 96 L 26 96 L 24 96 L 24 94 L 24 92 L 22 92 L 20 92 L 20 90 L 20 88 L 18 88 L 16 88 L 16 86 L 16 84 L 14 84 L 12 84 L 12 82 L 12 80 L 10 80 L 8 80 L 8 78 L 8 76 L 6 76 L 4 76 z "
     style="fill:#14213d;fill-opacity:1" />
  <path
     id="rect165"
     d="M 64 4 L 64 6 L 64 8 L 66 8 L 68 8 L 68 6 L 68 4 L 66 4 L 64 4 z M 64 8 L 62 8 L 60 8 L 60 10 L 60 12 L 62 12 L 64 12 L 64 10 L 64 8 z M 60 12 L 58 12 L 56 12 L 56 14 L 56 16 L 58 16 L 60 16 L 60 14 L 60 12 z M 56 16 L 54 16 L 52 16 L 52 18 L 52 20 L 54 20 L 56 20 L 56 18 L 56 16 z M 52 20 L 50 20 L 48 20 L 48 22 L 48 24 L 50 24 L 52 24 L 52 22 L 52 20 z M 48 24 L 46 24 L 44 24 L 44 26 L 44 28 L 46 28 L 48 28 L 48 26 L 48 24 z M 44 28 L 42 28 L 40 28 L 40 30 L 40 32 L 42 32 L 44 32 L 44 30 L 44 28 z M 40 32 L 38 32 L 36 32 L 36 34 L 36 36 L 38 36 L 40 36 L 40 34 L 40 32 z M 36 36 L 34 36 L 32 36 L 32 38 L 32 40 L 34 40 L 36 40 L 36 38 L 36 36 z M 32 40 L 30 40 L 28 40 L 28 42 L 28 44 L 30 44 L 32 44 L 32 42 L 32 40 z M 28 44 L 26 44 L 24 44 L 24 46 L 24 48 L 26 48 L 28 48 L 28 46 L 28 44 z M 24 48 L 22 48 L 20 48 L 20 50 L 20 52 L 22 52 L 24 52 L 24 50 L 24 48 z M 20 52 L 18 52 L 16 52 L 16 54 L 16 56 L 18 56 L 20 56 L 20 54 L 20 52 z M 16 56 L 14 56 L 12 56 L 12 58 L 12 60 L 14 60 L 16 60 L 16 58 L 16 56 z M 12 60 L 10 60 L 8 60 L 8 62 L 8 64 L 10 64 L 12 64 L 12 62 L 12 60 z M 8 64 L 6 64 L 4 64 L 4 66 L 4 68 L 2 68 L 0 68 L 0 70 L 0 72 L 2 72 L 4 72 L 4 74 L 4 76 L 6 76 L 8 76 L 8 78 L 8 80 L 10 80 L 12 80 L 12 82 L 12 84 L 14 84 L 16 84 L 16 86 L 16 88 L 18 88 L 20 88 L 20 90 L 20 92 L 22 92 L 24 92 L 24 94 L 24 96 L 26 96 L 28 96 L 28 98 L 28 100 L 30 100 L 32 100 L 32 102 L 32 104 L 34 104 L 36 104 L 36 106 L 36 108 L 38 108 L 40 108 L 40 110 L 40 112 L 42 112 L 44 112 L 44 114 L 44 116 L 46 116 L 48 116 L 48 118 L 48 120 L 50 120 L 52 120 L 52 122 L 52 124 L 54 124 L 56 124 L 56 126 L 56 128 L 58 128 L 60 128 L 62 128 L 64 128 L 66 128 L 68 128 L 70 128 L 72 128 L 74 128 L 76 128 L 78 128 L 80 128 L 82 128 L 84 128 L 86 128 L 88 128 L 90 128 L 92 128 L 94 128 L 96 128 L 98 128 L 100 128 L 102 128 L 104 128 L 106 128 L 108 128 L 110 128 L 112 128 L 114 128 L 116 128 L 118 128 L 120 128 L 122 128 L 124 128 L 124 126 L 124 124 L 122 124 L 120 124 L 120 122 L 120 120 L 118 120 L 116 120 L 116 118 L 116 116 L 114 116 L 112 116 L 112 114 L 112 112 L 110 112 L 108 112 L 108 110 L 108 108 L 106 108 L 104 108 L 104 106 L 104 104 L 102 104 L 100 104 L 100 102 L 100 100 L 98 100 L 96 100 L 96 98 L 96 96 L 94 96 L 92 96 L 92 94 L 92 92 L 90 92 L 88 92 L 88 90 L 88 88 L 86 88 L 84 88 L 84 86 L 84 84 L 82 84 L 80 84 L 80 82 L 80 80 L 78 80 L 76 80 L 76 78 L 76 76 L 74 76 L 72 76 L 72 74 L 72 72 L 70 72 L 68 72 L 68 70 L 68 68 L 66 68 L 64 68 L 62 68 L 60 68 L 58 68 L 56 68 L 54 68 L 52 68 L 50 68 L 48 68 L 46 68 L 44 68 L 42 68 L 40 68 L 38 68 L 36 68 L 34 68 L 32 68 L 30 68 L 28 68 L 26 68 L 24 68 L 22 68 L 20 68 L 18 68 L 16 68 L 14 68 L 12 68 L 10 68 L 8 68 L 8 66 L 8 64 z "
     style="fill:#ffffff;fill-opacity:1" />
  <path
     id="rect167"
     d="M 68 4 L 68 6 L 68 8 L 66 8 L 64 8 L 64 10 L 64 12 L 62 12 L 60 12 L 60 14 L 60 16 L 58 16 L 56 16 L 56 18 L 56 20 L 54 20 L 52 20 L 52 22 L 52 24 L 50 24 L 48 24 L 48 26 L 48 28 L 46 28 L 44 28 L 44 30 L 44 32 L 42 32 L 40 32 L 40 34 L 40 36 L 38 36 L 36 36 L 36 38 L 36 40 L 34 40 L 32 40 L 32 42 L 32 44 L 30 44 L 28 44 L 28 46 L 28 48 L 26 48 L 24 48 L 24 50 L 24 52 L 22 52 L 20 52 L 20 54 L 20 56 L 18 56 L 16 56 L 16 58 L 16 60 L 14 60 L 12 60 L 12 62 L 12 64 L 10 64 L 8 64 L 8 66 L 8 68 L 10 68 L 12 68 L 14 68 L 16 68 L 18 68 L 20 68 L 22 68 L 24 68 L 26 68 L 28 68 L 30 68 L 32 68 L 34 68 L 36 68 L 38 68 L 40 68 L 42 68 L 44 68 L 46 68 L 48 68 L 50 68 L 52 68 L 54 68 L 56 68 L 58 68 L 60 68 L 62 68 L 64 68 L 66 68 L 68 68 L 70 68 L 72 68 L 72 66 L 72 64 L 74 64 L 76 64 L 76 62 L 76 60 L 78 60 L 80 60 L 80 58 L 80 56 L 82 56 L 84 56 L 84 54 L 84 52 L 86 52 L 88 52 L 88 50 L 88 48 L 90 48 L 92 48 L 92 46 L 92 44 L 94 44 L 96 44 L 96 42 L 96 40 L 98 40 L 100 40 L 100 38 L 100 36 L 102 36 L 104 36 L 104 34 L 104 32 L 106 32 L 108 32 L 108 30 L 108 28 L 110 28 L 112 28 L 112 26 L 112 24 L 114 24 L 116 24 L 116 22 L 116 20 L 118 20 L 120 20 L 120 18 L 120 16 L 122 16 L 124 16 L 124 14 L 124 12 L 126 12 L 128 12 L 128 10 L 128 8 L 128 6 L 128 4 L 126 4 L 124 4 L 122 4 L 120 4 L 118 4 L 116 4 L 114 4 L 112 4 L 110 4 L 108 4 L 106 4 L 104 4 L 102 4 L 100 4 L 98 4 L 96 4 L 94 4 L 92 4 L 90 4 L 88 4 L 86 4 L 84 4 L 82 4 L 80 4 L 78 4 L 76 4 L 74 4 L 72 4 L 70 4 L 68 4 z "
     style="fill:#e5e5e5;fill-opacity:1" />
  <path
     id="rect591"
     d="M 124 16 L 124 18 L 124 20 L 122 20 L 120 20 L 120 22 L 120 24 L 118 24 L 116 24 L 116 26 L 116 28 L 114 28 L 112 28 L 112 30 L 112 32 L 110 32 L 108 32 L 108 34 L 108 36 L 106 36 L 104 36 L 104 38 L 104 40 L 102 40 L 100 40 L 100 42 L 100 44 L 98 44 L 96 44 L 96 46 L 96 48 L 94 48 L 92 48 L 92 50 L 92 52 L 90 52 L 88 52 L 88 54 L 88 56 L 86 56 L 84 56 L 84 58 L 84 60 L 82 60 L 80 60 L 80 62 L 80 64 L 78 64 L 76 64 L 76 66 L 76 68 L 74 68 L 72 68 L 72 70 L 72 72 L 74 72 L 76 72 L 76 74 L 76 76 L 78 76 L 80 76 L 80 78 L 80 80 L 82 80 L 84 80 L 84 82 L 84 84 L 86 84 L 88 84 L 88 86 L 88 88 L 90 88 L 92 88 L 92 90 L 92 92 L 94 92 L 96 92 L 96 94 L 96 96 L 98 96 L 100 96 L 100 98 L 100 100 L 102 100 L 104 100 L 104 102 L 104 104 L 106 104 L 108 104 L 108 106 L 108 108 L 110 108 L 112 108 L 112 110 L 112 112 L 114 112 L 116 112 L 116 114 L 116 116 L 118 116 L 120 116 L 120 118 L 120 120 L 122 120 L 124 120 L 124 122 L 124 124 L 126 124 L 128 124 L 128 122 L 128 120 L 128 118 L 128 116 L 128 114 L 128 112 L 128 110 L 128 108 L 128 106 L 128 104 L 128 102 L 128 100 L 128 98 L 128 96 L 128 94 L 128 92 L 128 90 L 128 88 L 128 86 L 128 84 L 128 82 L 128 80 L 128 78 L 128 76 L 128 74 L 128 72 L 128 70 L 128 68 L 128 66 L 128 64 L 128 62 L 128 60 L 128 58 L 128 56 L 128 54 L 128 52 L 128 50 L 128 48 L 128 46 L 128 44 L 128 42 L 128 40 L 128 38 L 128 36 L 128 34 L 128 32 L 128 30 L 128 28 L 128 26 L 128 24 L 128 22 L 128 20 L 128 18 L 128 16 L 126 16 L 124 16 z "
     style="fill:#fca311;fill-opacity:1" />
</svg>
